
<svg width="429px" height="300px" viewBox="0 0 918 342" version="1.1" xmlns="http://www.w3.org/2000/svg" xmlns:xlink="http://www.w3.org/1999/xlink">
    <g id="v4.0" stroke="none" stroke-width="1" fill="none" fill-rule="evenodd">
        <g id="Group-3">
            <g id="podlove-player-icon" transform="translate(294.000000, 0.000000)">
                <g id="podlove_logo">
                    <g id="sub_signet" transform="translate(152.136646, 0.000000)">
                        <path d="M134.190689,0 L17.1688261,0 C11.1882112,0 5.49131056,1.20886957 0.302217391,3.39018012 L5.17470186,3.39018012 C28.755882,3.39018012 47.8695901,22.5059441 47.8695901,46.0850683 L47.8695901,284.526366 C47.8695901,308.103435 28.755882,327.221255 5.17470186,327.221255 L0.304273292,327.221255 C5.49131056,329.402565 11.1882112,330.609379 17.1688261,330.609379 L134.190689,330.609379 C158.265286,330.609379 177.777839,311.09477 177.777839,287.02223 L177.777839,43.589205 C177.777839,19.5166646 158.26323,0 134.190689,0 Z" id="Shape" fill="#F2875C"></path>
                        <path d="M89.2096398,135.751118 L101.207876,143.244876 L137.192304,165.717925 L129.99254,170.107273 L89.2096398,194.973391 L89.2096398,135.751118 L89.2096398,135.751118 Z M86.4588447,127.134839 C84.425559,127.134839 82.852795,129.17018 82.852795,131.409056 L82.852795,200.137814 C82.852795,202.650124 84.1315652,203.47454 85.6693789,203.47454 C86.8206832,203.47454 88.1179565,203.016075 89.1356273,202.454814 C102.235826,194.469696 132.231416,176.188627 144.221429,168.879901 C146.454137,167.510671 147.539652,164.449435 144.357118,162.697807 C132.303373,155.167043 101.425801,135.888863 88.5908137,127.870851 C87.8527453,127.358932 87.1311242,127.134839 86.4588447,127.134839 L86.4588447,127.134839 Z" id="Shape" stroke="#FFFFFF" stroke-width="2" fill="#FFFFFF"></path>
                    </g>
                    <g id="podlove_signet">
                        <path d="M160.734422,18.5031056 C174.566522,18.5031056 185.818466,29.7571056 185.818466,43.589205 L185.818466,287.024286 C185.818466,300.856385 174.564466,312.108329 160.734422,312.108329 L43.712559,312.108329 C29.8825155,312.108329 18.6305714,300.856385 18.6305714,287.024286 L18.6305714,43.589205 C18.6305714,29.7571056 29.8825155,18.5031056 43.712559,18.5031056 L160.734422,18.5031056 L160.734422,18.5031056 Z M160.734422,0 L43.712559,0 C19.6441304,0 0.127465839,19.5166646 0.127465839,43.589205 L0.127465839,287.024286 C0.127465839,311.09477 19.6441304,330.611435 43.712559,330.611435 L160.732366,330.611435 C184.806963,330.611435 204.319516,311.096826 204.319516,287.024286 L204.319516,43.589205 C204.321571,19.5166646 184.809019,0 160.734422,0 L160.734422,0 Z" id="Shape" fill="#FFFFFF"></path>
                        <path d="M102.052851,185.878087 C128.249137,185.878087 149.480422,207.109373 149.480422,233.303602 C149.480422,259.495776 128.249137,280.731174 102.052851,280.731174 C75.8647888,280.731174 54.6293913,259.495776 54.6293913,233.303602 C54.6273354,207.109373 75.8627329,185.878087 102.052851,185.878087 L102.052851,185.878087 Z M102.052851,167.374981 C65.7004161,167.374981 36.1262857,196.951168 36.1262857,233.303602 C36.1262857,269.658093 65.7004161,299.23428 102.052851,299.23428 C138.407342,299.23428 167.983528,269.658093 167.983528,233.303602 C167.983528,196.951168 138.407342,167.374981 102.052851,167.374981 L102.052851,167.374981 Z" id="Shape" fill="#FFFFFF"></path>
                        <path d="M149.992342,95.0298944 L101.53682,143.514199 L53.083354,95.0237267 C47.6372733,89.472795 44.2738199,81.8680186 44.2738199,73.4758323 C44.2738199,56.4797019 58.0524658,42.7031118 75.0465404,42.7031118 C86.3231553,42.7031118 96.177087,48.7659627 101.53682,57.8078137 C106.894497,48.7659627 116.75254,42.7031118 128.025043,42.7031118 C145.02323,42.7031118 158.801876,56.4797019 158.801876,73.4758323 C158.801876,81.8680186 155.438422,89.4769068 149.992342,95.0298944 Z" id="Shape" stroke="#FFFFFF" stroke-width="9"></path>
                        <path d="M102.054907,216.328031 C111.43187,216.328031 119.036646,223.930752 119.036646,233.303602 C119.036646,242.682621 111.43187,250.28123 102.054907,250.28123 C92.68,250.28123 85.0793354,242.682621 85.0793354,233.303602 C85.0793354,223.930752 92.68,216.328031 102.054907,216.328031 Z" id="Shape" fill="#FFFFFF"></path>
                    </g>
                </g>
            </g>
        </g>
    </g>
</svg>
